# AST/ASF file generated using VICON BodyLanguage
# -----------------------------------------------
:version 1.10
:name VICON
:units
  mass 1.0
  length 0.45
  angle deg
:documentation
   .ast/.asf automatically generated from VICON data using
   VICON BodyBuilder and BodyLanguage model FoxedUp or BRILLIANT.MOD
:root
   order TX TY TZ RX RY RZ
   axis XYZ
   position 0 0 0  
   orientation 0 0 0 
:bonedata
  begin
     id 1 
     name lhipjoint
     direction 0.577973 -0.728611 0.367523 
     length 2.48544 
     axis 0 0 0  XYZ
  end
  begin
     id 2 
     name lfemur
     direction 0.34202 -0.939693 0  
     length 7.1921  
     axis 0 0 20  XYZ
    dof rx ry rz
    limits (-160.0 20.0)
           (-70.0 70.0)
           (-60.0 70.0)
  end
  begin
     id 3 
     name ltibia
     direction 0.34202 -0.939693 0   
     length 7.71059   
     axis 0 0 20   XYZ
    dof rx
    limits (-10.0 170.0)
  end
  begin
     id 4 
     name lfoot
     direction 0.089538 -0.246004 0.965124   
     length 2.19909   
     axis -90 7.62852e-016 20   XYZ
    dof rx rz
    limits (-45.0 90.0)
           (-70.0 20.0)
  end
  begin
     id 5 
     name ltoes
     direction 1.53544e-011 -4.21829e-011 1   
     length 1.10116   
     axis -90 7.62852e-016 20   XYZ
    dof rx
    limits (-90.0 20.0)
  end
  begin
     id 6 
     name rhipjoint
     direction -0.554414 -0.743062 0.374812   
     length 2.4371  
     axis 0 0 0  XYZ 
  end
  begin
     id 7 
     name rfemur
     direction -0.34202 -0.939693 0   
     length 7.47254   
     axis 0 0 -20   XYZ
    dof rx ry rz
    limits (-160.0 20.0)
           (-70.0 70.0)
           (-70.0 60.0)
  end
  begin
     id 8 
     name rtibia
     direction -0.34202 -0.939693 0   
     length 7.65855   
     axis 0 0 -20   XYZ
    dof rx
    limits (-10.0 170.0)
 end
 begin
     id 9 
     name rfoot
     direction -0.133779 -0.367555 0.92033   
     length 2.43006  
     axis -90 -7.62852e-016 -20   XYZ
    dof rx rz
    limits (-45.0 90.0)
           (-20.0 70.0)
  end
  begin
     id 10 
     name rtoes
     direction -1.53563e-011 -4.21889e-011 1   
     length 1.19625   
     axis -90 -7.62852e-016 -20   XYZ
    dof rx
    limits (-90.0 20.0)
  end
  begin
     id 11 
     name lowerback
     direction 0.0249066 0.998043 -0.0573585   
     length 2.08485   
     axis 0 0 0   XYZ
    dof rx ry rz
    limits (-20.0 45.0)
           (-30.0 30.0)
           (-30.0 30.0)
  end
  begin
     id 12 
     name upperback
     direction 0.0237884 0.999673 0.00943178   
     length 2.08515   
     axis 0 0 0   XYZ
    dof rx ry rz
    limits (-20.0 45.0)
           (-30.0 30.0)
           (-30.0 30.0)
  end
  begin
     id 13 
     name thorax
     direction 0.0106671 0.999301 0.0358174   
     length 2.09037   
     axis 0 0 0   XYZ
    dof rx ry rz
    limits (-20.0 45.0)
           (-30.0 30.0)
           (-30.0 30.0)
  end
  begin
     id 14 
     name lowerneck
     direction -0.0580016 0.987052 0.149546   
     length 1.84454   
     axis 0 0 0   XYZ
    dof rx ry rz
    limits (-20.0 45.0)
           (-30.0 30.0)
           (-30.0 30.0)
  end
  begin
     id 15 
     name upperneck
     direction 0.079456 0.981963 -0.171567   
     length 1.88141   
     axis 0 0 0   XYZ
    dof rx ry rz
    limits (-20.0 45.0)
           (-30.0 30.0)
           (-30.0 30.0)
  end
  begin
     id 16
     name head
     direction 0.0262167 0.9967 -0.0768276  
     length 1.89541  
     axis 0 0 0   XYZ
    dof rx ry rz
    limits (-20.0 45.0)
           (-30.0 30.0)
           (-30.0 30.0)
  end
  begin
     id 17 
     name lclavicle
     direction 0.946135 0.322134 -0.0325326  
     length 3.949  
     axis 0 0 0   XYZ
    dof ry rz
    limits (-20.0 10.0)
           (0.0 20.0)
  end
  begin
     id 18 
     name lhumerus
     direction 1 -4.48964e-011 1.94005e-028   
     length 5.10995   
     axis 180 -30 -90   XYZ
    dof rx ry rz
    limits (-60.0 90.0)
           (-90.0 90.0)
           (-90.0 90.0)
  end
  begin
     id 19
     name lradius
     direction 1 -4.48976e-011 2.87852e-027   
     length 3.21207   
     axis 180 -30 -90   XYZ
    dof rx
    limits (-10.0 170.0)
  end
  begin
     id 20
     name lwrist
     direction 1 -4.48963e-011 1.9975e-027   
     length 1.60604   
     axis 2.96054e-016 90 90   XYZ
    dof ry
    limits (-180.0 0.0)
 end
  begin
     id 21 
     name lhand
     direction 1 -4.48919e-011 4.00227e-027   
     length 0.63349   
     axis -2.5488e-015 90 90   XYZ
    dof rx rz
    limits (-90.0 90.0)
           (-45.0 45.0)
  end
  begin
     id 22 
     name lfingers
     direction 1 -4.49037e-011 7.9652e-027   
     length 0.510736   
     axis -5.0975e-015 90 90   XYZ
    dof rx
    limits (0.0 90.0)
  end
  begin
     id 23
     name lthumb
     direction 0.707107 -6.34922e-011 0.707107   
     length 0.733318   
     axis -90 45 -4.48553e-014   XYZ
    dof rx rz
    limits (-45.0 45.0)
           (-45.0 45.0)
  end
  begin
     id 24 
     name rclavicle
     direction -0.940085 0.328911 -0.0897654   
     length 3.93848  
     axis 0 0 0   XYZ 
    dof ry rz
    limits (-10.0 20.0)
           (-20.0 0.0)
  end
  begin
     id 25 
     name rhumerus
     direction -1 -4.48958e-011 3.02044e-027  
     length 5.25109   
     axis 180 30 90   XYZ
    dof rx ry rz
    limits (-90.0 60.0)
           (-90.0 90.0)
           (-90.0 90.0)
  end
  begin
     id 26 
     name rradius
     direction -1 -4.4897e-011 9.78352e-028   
     length 3.28364   
     axis 180 30 90   XYZ
    dof rx
    limits (-10.0 170.0)
  end
  begin
     id 27 
     name rwrist
     direction -1 -4.48943e-011 1.99918e-027   
     length 1.64182   
     axis 2.96054e-016 -90 -90   XYZ
    dof ry
    limits (-180.0 0.0)
  end
  begin
     id 28
     name rhand
     direction -1 -4.49024e-011 3.98478e-027   
     length 0.599745   
     axis -2.5488e-015 -90 -90   XYZ
    dof rx rz
    limits (-90.0 90.0)
           (-45.0 45.0)
  end
  begin
     id 29
     name rfingers
     direction -1 -4.48914e-011 8.00621e-027   
     length 0.48353   
     axis -5.0975e-015 -90 -90   XYZ
    dof rx
    limits (0.0 90.0)
  end
  begin
     id 30
     name rthumb
     direction -0.707107 -6.34992e-011 0.707107   
     length 0.694255   
     axis -90 -45 4.48553e-014   XYZ
    dof rx rz
    limits (-45.0 45.0)
           (-45.0 45.0)
  end
:hierarchy
  begin
    root lhipjoint rhipjoint lowerback
    lhipjoint lfemur
    lfemur ltibia
    ltibia lfoot
    lfoot ltoes
    rhipjoint rfemur
    rfemur rtibia
    rtibia rfoot
    rfoot rtoes
    lowerback upperback
    upperback thorax
    thorax lowerneck lclavicle rclavicle
    lowerneck upperneck
    upperneck head
    lclavicle lhumerus
    lhumerus lradius
    lradius lwrist
    lwrist lhand lthumb
    lhand lfingers
    rclavicle rhumerus
    rhumerus rradius
    rradius rwrist
    rwrist rhand rthumb
    rhand rfingers
  end

#!OML:ASF E:\CV Data\Top Level 1\Subject 1\Session 1\player.ASF
:FULLY-SPECIFIED
:DEGREES
93
root 7.77461 17.7159 -12.7106 8.91467 -28.5885 -1.45568
lowerback 9.27493 -1.07569 3.77255
upperback 1.81417 -0.916052 5.37688
thorax -3.28582 -0.496315 3.58956
lowerneck -19.9177 -1.49104 -8.24511
upperneck 15.2757 -0.534059 4.44059
head 8.0359 -0.287682 2.76742
rclavicle 4.37326e-015 4.13472e-014
rhumerus -34.9563 -13.6059 -68.0356
rradius 33.2862
rwrist -28.3345
rhand -25.144 0.213186
rfingers 7.12502
rthumb 1.37252 -29.7621
lclavicle 4.37326e-015 4.13472e-014
lhumerus -15.1896 -9.50378 73.8096
lradius 49.8276
lwrist 18.9726
lhand -13.7918 23.1986
lfingers 7.12502
lthumb 12.3299 52.8151
rfemur -15.5763 1.80044 19.1511
rtibia 29.6393
rfoot -18.9252 -14.3253
rtoes 0.196848
lfemur -23.8077 3.64401 -15.2656
ltibia 22.8568
lfoot -0.38449 4.63118
ltoes -5.5752
94
root 7.78901 17.7145 -12.7039 9.02449 -28.4974 -1.40898
lowerback 9.41385 -1.15365 3.89567
upperback 1.92339 -1.00399 5.44494
thorax -3.24675 -0.541578 3.60436
lowerneck -19.9269 -1.3873 -8.21932
upperneck 15.0038 -0.374684 4.33602
head 7.93532 -0.216618 2.74376
rclavicle -1.39149e-014 3.18055e-014
rhumerus -36.194 -14.3918 -66.3159
rradius 32.9268
rwrist -28.9155
rhand -25.2909 -0.223984
rfingers 7.12502
rthumb 1.23065 -30.2002
lclavicle -1.39149e-014 3.18055e-014
lhumerus -15.514 -8.72786 72.9038
lradius 49.1057
lwrist 18.3446
lhand -14.0273 22.8328
lfingers 7.12502
lthumb 12.1028 52.4628
rfemur -15.7736 1.57025 19.0652
rtibia 29.7457
rfoot -18.9621 -14.2494
rtoes 0.0743755
lfemur -24.0653 3.55513 -15.3696
ltibia 23.009
lfoot -0.406036 4.62194
ltoes -5.46031
95
root 7.80383 17.7136 -12.6952 9.13351 -28.4475 -1.36812
lowerback 9.54771 -1.21755 4.02241
upperback 2.03816 -1.07355 5.51531
thorax -3.19969 -0.577687 3.61728
lowerneck -19.9378 -1.28286 -8.19336
upperneck 14.7322 -0.211331 4.21174
head 7.83531 -0.145429 2.71383
rclavicle 2.0276e-014 1.04958e-013
rhumerus -37.4615 -15.1143 -64.5589
rradius 32.5827
rwrist -29.4505
rhand -25.4183 -0.670927
rfingers 7.12502
rthumb 1.10755 -30.6478
lclavicle 2.0276e-014 1.04958e-013
lhumerus -15.9019 -7.98583 72.0253
lradius 48.3932
lwrist 17.5606
lhand -14.2173 22.4831
lfingers 7.12502
lthumb 11.9195 52.1238
rfemur -15.9604 1.35571 18.9733
rtibia 29.8375
rfoot -18.9895 -14.1497
rtoes -0.0704136
lfemur -24.302 3.48409 -15.4749
ltibia 23.1573
lfoot -0.433175 4.63686
ltoes -5.36832
96
root 7.81889 17.713 -12.6856 9.24957 -28.4177 -1.33089
lowerback 9.6825 -1.26225 4.15288
upperback 2.15666 -1.11748 5.57915
thorax -3.15024 -0.601007 3.61819
lowerneck -19.9679 -1.18886 -8.15161
upperneck 14.4625 -0.0645369 4.08002
head 7.7408 -0.0815771 2.67691
rclavicle -1.74931e-014 -4.45278e-014
rhumerus -38.7559 -15.8464 -62.761
rradius 32.2351
rwrist -29.9169
rhand -25.5207 -1.11151
rfingers 7.12502
rthumb 1.00864 -31.0889
lclavicle -1.74931e-014 -4.45278e-014
lhumerus -16.3241 -7.31309 71.166
lradius 47.698
lwrist 16.654
lhand -14.364 22.2336
lfingers 7.12502
lthumb 11.7781 51.8825
rfemur -16.148 1.154 18.8799
rtibia 29.9179
rfoot -19.0082 -14.043
rtoes -0.232805
lfemur -24.5375 3.43748 -15.5832
ltibia 23.3031
lfoot -0.465003 4.64735
ltoes -5.26726
97
root 7.83418 17.7123 -12.6756 9.37607 -28.4163 -1.2949
lowerback 9.81175 -1.28464 4.27871
upperback 2.27758 -1.13289 5.6386
thorax -3.09604 -0.610018 3.61345
lowerneck -20.0094 -1.105 -8.09108
upperneck 14.1946 0.0666791 3.92972
head 7.65028 -0.0257083 2.62893
rclavicle -2.50469e-014 2.06736e-014
rhumerus -40.0767 -16.5779 -60.9237
rradius 31.8812
rwrist -30.3219
rhand -25.6084 -1.53632
rfingers 7.12502
rthumb 0.92395 -31.5141
lclavicle -2.50469e-014 2.06736e-014
lhumerus -16.7742 -6.71937 70.3349
lradius 47.0116
lwrist 15.6549
lhand -14.471 22.0556
lfingers 7.12502
lthumb 11.6749 51.7103
rfemur -16.3478 0.978937 18.7812
rtibia 29.9958
rfoot -19.0208 -13.9333
rtoes -0.403529
lfemur -24.7778 3.42359 -15.6977
ltibia 23.4481
lfoot -0.502007 4.65324
ltoes -5.13623
98
root 7.84992 17.7118 -12.664 9.49511 -28.4074 -1.25052
lowerback 9.92376 -1.31235 4.40957
upperback 2.4049 -1.15675 5.69638
thorax -3.02534 -0.623052 3.60456
lowerneck -20.0398 -1.01843 -8.02961
upperneck 13.9176 0.20226 3.76413
head 7.55513 0.0310181 2.57608
rclavicle 9.42239e-014 -6.36111e-015
rhumerus -41.4004 -17.2609 -59.0634
rradius 31.5104
rwrist -30.667
rhand -25.6875 -1.93882
rfingers 7.12502
rthumb 0.847602 -31.9169
lclavicle 9.42239e-014 -6.36111e-015
lhumerus -17.2723 -6.16232 69.5307
lradius 46.349
lwrist 14.6337
lhand -14.5812 21.9592
lfingers 7.12502
lthumb 11.5686 51.6199
rfemur -16.5397 0.806713 18.6713
rtibia 30.0783
rfoot -19.0415 -13.8312
rtoes -0.572279
lfemur -25.0129 3.4079 -15.825
ltibia 23.5943
lfoot -0.545437 4.65204
ltoes -4.99018
99
root 7.86603 17.7109 -12.6529 9.62496 -28.3814 -1.19552
lowerback 10.0216 -1.33431 4.53787
upperback 2.53046 -1.1743 5.74726
thorax -2.94888 -0.632702 3.58869
lowerneck -20.0703 -0.941051 -7.95302
upperneck 13.6338 0.32173 3.58948
head 7.45926 0.0803088 2.51586
rclavicle -1.19271e-014 2.06736e-014
rhumerus -42.7381 -17.9468 -57.1765
rradius 31.1194
rwrist -30.9395
rhand -25.7798 -2.32852
rfingers 7.12502
rthumb 0.758374 -32.3069
lclavicle -1.19271e-014 2.06736e-014
lhumerus -17.7881 -5.69143 68.7563
lradius 45.704
lwrist 13.6436
lhand -14.6761 21.9361
lfingers 7.12502
lthumb 11.4772 51.602
rfemur -16.7527 0.640178 18.5533
rtibia 30.1727
rfoot -19.0686 -13.749
rtoes -0.72756
lfemur -25.2727 3.40318 -15.9671
ltibia 23.742
lfoot -0.59012 4.62142
ltoes -4.80958
100
root 7.88264 17.7098 -12.6415 9.75848 -28.3429 -1.13566
lowerback 10.1171 -1.36358 4.65541
upperback 2.64494 -1.20162 5.80957
thorax -2.88184 -0.647116 3.59246
lowerneck -20.0735 -0.858121 -7.89375
upperneck 13.3449 0.451658 3.40671
head 7.35711 0.132987 2.45686
rclavicle 4.05521e-014 6.36111e-015
rhumerus -44.0723 -18.5654 -55.2619
rradius 30.7001
rwrist -31.1413
rhand -25.8907 -2.70238
rfingers 7.12502
rthumb 0.651269 -32.6811
lclavicle 4.05521e-014 6.36111e-015
lhumerus -18.3636 -5.25493 68.0334
lradius 45.0776
lwrist 12.7229
lhand -14.8383 21.9039
lfingers 7.12502
lthumb 11.3207 51.5783
rfemur -16.9755 0.48344 18.4305
rtibia 30.2802
rfoot -19.1053 -13.6859
rtoes -0.854645
lfemur -25.5415 3.39958 -16.1174
ltibia 23.889
lfoot -0.636683 4.57532
ltoes -4.63198
101
root 7.89961 17.7083 -12.63 9.89518 -28.2898 -1.06259
lowerback 10.2006 -1.39439 4.764
upperback 2.7544 -1.23242 5.87189
thorax -2.81313 -0.663076 3.60152
lowerneck -20.0668 -0.777886 -7.84415
upperneck 13.0551 0.578481 3.22508
head 7.25375 0.184026 2.39949
rclavicle -7.63333e-014 1.17681e-013
rhumerus -45.4032 -19.16 -53.3231
rradius 30.2495
rwrist -31.2564
rhand -26.0276 -3.05569
rfingers 7.12502
rthumb 0.519106 -33.0348
lclavicle -7.63333e-014 1.17681e-013
lhumerus -18.9651 -4.87403 67.3554
lradius 44.4713
lwrist 11.9214
lhand -15.0783 21.8409
lfingers 7.12502
lthumb 11.0892 51.528
rfemur -17.2113 0.331195 18.2965
rtibia 30.3989
rfoot -19.1484 -13.6438
rtoes -0.976299
lfemur -25.8222 3.39997 -16.2839
ltibia 24.0313
lfoot -0.683426 4.50769
ltoes -4.46173
102
root 7.91702 17.7067 -12.6183 10.0345 -28.2137 -0.97902
lowerback 10.288 -1.4277 4.85791
upperback 2.84738 -1.26592 5.94453
thorax -2.76318 -0.680399 3.63072
lowerneck -20.0446 -0.701346 -7.81386
upperneck 12.7739 0.70355 3.04167
head 7.15125 0.233115 2.34453
rclavicle -1.74931e-014 -2.70347e-014
rhumerus -46.7351 -19.7333 -51.3367
rradius 29.759
rwrist -31.2612
rhand -26.1873 -3.39706
rfingers 7.12502
rthumb 0.364873 -33.3765
lclavicle -1.74931e-014 -2.70347e-014
lhumerus -19.603 -4.53763 66.743
lradius 43.884
lwrist 11.2515
lhand -15.3732 21.7415
lfingers 7.12502
lthumb 10.8047 51.4436
rfemur -17.4521 0.178663 18.1551
rtibia 30.5192
rfoot -19.1938 -13.6269
rtoes -1.08971
lfemur -26.1099 3.39816 -16.4636
ltibia 24.1631
lfoot -0.728627 4.41392
ltoes -4.28234
103
root 7.93492 17.7053 -12.6048 10.1515 -28.1313 -0.884819
lowerback 10.3805 -1.46478 4.94787
upperback 2.93752 -1.30396 6.02214
thorax -2.71856 -0.699997 3.66834
lowerneck -19.9999 -0.626364 -7.80918
upperneck 12.4959 0.83024 2.86016
head 7.04645 0.282075 2.29447
rclavicle -1.51076e-014 -3.02153e-014
rhumerus -48.056 -20.2957 -49.3009
rradius 29.2219
rwrist -31.1396
rhand -26.3647 -3.7225
rfingers 7.12502
rthumb 0.19347 -33.7022
lclavicle -1.51076e-014 -3.02153e-014
lhumerus -20.279 -4.22876 66.1937
lradius 43.3265
lwrist 10.7142
lhand -15.7041 21.6266
lfingers 7.12502
lthumb 10.4856 51.3451
rfemur -17.6642 0.0277676 18.0002
rtibia 30.6344
rfoot -19.2425 -13.6227
rtoes -1.21149
lfemur -26.3635 3.39046 -16.6571
ltibia 24.2766
lfoot -0.777616 4.31381
ltoes -4.11892
